<?xml version="1.0" encoding="UTF-8" standalone="no"?>
<!-- Created with Inkscape (http://www.inkscape.org/) -->

<svg
   xmlns:dc="http://purl.org/dc/elements/1.1/"
   xmlns:cc="http://creativecommons.org/ns#"
   xmlns:rdf="http://www.w3.org/1999/02/22-rdf-syntax-ns#"
   xmlns:svg="http://www.w3.org/2000/svg"
   xmlns="http://www.w3.org/2000/svg"
   xmlns:sodipodi="http://sodipodi.sourceforge.net/DTD/sodipodi-0.dtd"
   xmlns:inkscape="http://www.inkscape.org/namespaces/inkscape"
   width="41.078945mm"
   height="18.298382mm"
   viewBox="0 0 145.55532 64.836786"
   id="svg2"
   version="1.1"
   inkscape:version="0.91 r13725"
   sodipodi:docname="unicorn_logo_1_fixed.svg"
   inkscape:export-filename="/home/thomas/unicorn_logo_1.svg.png"
   inkscape:export-xdpi="90"
   inkscape:export-ydpi="90">
  <defs
     id="defs4" />
  <sodipodi:namedview
     id="base"
     pagecolor="#ffffff"
     bordercolor="#666666"
     borderopacity="1.0"
     inkscape:pageopacity="0.0"
     inkscape:pageshadow="2"
     inkscape:zoom="3.959798"
     inkscape:cx="67.055437"
     inkscape:cy="0.31363769"
     inkscape:document-units="px"
     inkscape:current-layer="layer1"
     showgrid="false"
     inkscape:window-width="1600"
     inkscape:window-height="851"
     inkscape:window-x="0"
     inkscape:window-y="25"
     inkscape:window-maximized="1"
     fit-margin-top="0.3"
     fit-margin-left="0.2"
     fit-margin-right="0.2"
     fit-margin-bottom="0.3" />
  <metadata
     id="metadata7">
    <rdf:RDF>
      <cc:Work
         rdf:about="">
        <dc:format>image/svg+xml</dc:format>
        <dc:type
           rdf:resource="http://purl.org/dc/dcmitype/StillImage" />
        <dc:title></dc:title>
      </cc:Work>
    </rdf:RDF>
  </metadata>
  <g
     inkscape:label="Layer 1"
     inkscape:groupmode="layer"
     id="layer1"
     transform="translate(-10.994512,-502.61939)">
    <text
       xml:space="preserve"
       style="font-style:normal;font-weight:normal;font-size:40px;line-height:125%;font-family:sans-serif;letter-spacing:0px;word-spacing:0px;fill:#000000;fill-opacity:1;stroke:none;stroke-width:1px;stroke-linecap:butt;stroke-linejoin:miter;stroke-opacity:1"
       x="68.571426"
       y="283.79077"
       id="text3336"
       sodipodi:linespacing="125%"><tspan
         sodipodi:role="line"
         id="tspan3338"
         x="68.571426"
         y="283.79077" /></text>
    <text
       xml:space="preserve"
       style="font-style:normal;font-weight:normal;font-size:40px;line-height:125%;font-family:sans-serif;letter-spacing:0px;word-spacing:0px;fill:#000000;fill-opacity:1;stroke:none;stroke-width:1px;stroke-linecap:butt;stroke-linejoin:miter;stroke-opacity:1"
       x="95.714287"
       y="259.50507"
       id="text3344"
       sodipodi:linespacing="125%"><tspan
         sodipodi:role="line"
         id="tspan3346"
         x="95.714287"
         y="259.50507" /></text>
    <g
       transform="scale(1.0399101,0.96162159)"
       style="font-style:normal;font-variant:normal;font-weight:normal;font-stretch:normal;font-size:50.43082428px;line-height:125%;font-family:Quicksand;-inkscape-font-specification:Quicksand;letter-spacing:0px;word-spacing:0px;fill:#ff3300;fill-opacity:1;stroke:none;stroke-width:1px;stroke-linecap:butt;stroke-linejoin:miter;stroke-opacity:1"
       id="text3348">
      <path
         d="m 51.781715,539.90881 q 0.6556,0 1.059047,0.45388 0.453877,0.40345 0.453877,1.05905 l 0,20.87836 q 0,3.68145 -1.765079,6.75773 -1.765078,3.07628 -4.790928,4.84136 -3.025849,1.76508 -6.656869,1.76508 -3.68145,0 -6.707299,-1.76508 -3.02585,-1.76508 -4.790929,-4.84136 -1.765078,-3.07628 -1.765078,-6.75773 l 0,-20.87836 q 0,-0.6556 0.403446,-1.05905 0.453878,-0.45388 1.21034,-0.45388 0.60517,0 1.059047,0.45388 0.453878,0.40345 0.453878,1.05905 l 0,20.87836 q 0,2.82412 1.361632,5.19437 1.361632,2.37025 3.68145,3.78231 2.370249,1.36164 5.093513,1.36164 2.773696,0 5.093514,-1.36164 2.370248,-1.41206 3.731881,-3.78231 1.412063,-2.37025 1.412063,-5.19437 l 0,-20.87836 q 0,-0.6556 0.403446,-1.05905 0.403447,-0.45388 1.059048,-0.45388 z"
         style="font-style:normal;font-variant:normal;font-weight:normal;font-stretch:normal;font-family:Quicksand;-inkscape-font-specification:Quicksand;fill:#ff3300;fill-opacity:1;stroke:none;stroke-opacity:1"
         id="path4172" />
    </g>
    <flowRoot
       xml:space="preserve"
       id="flowRoot3352"
       style="font-style:normal;font-weight:normal;font-size:40px;line-height:125%;font-family:sans-serif;letter-spacing:0px;word-spacing:0px;fill:#000000;fill-opacity:1;stroke:none;stroke-width:1px;stroke-linecap:butt;stroke-linejoin:miter;stroke-opacity:1"><flowRegion
         id="flowRegion3354"><rect
           id="rect3356"
           width="24.285715"
           height="104.28571"
           x="21.428572"
           y="553.79077" /></flowRegion><flowPara
         id="flowPara3358" /></flowRoot>    <flowRoot
       xml:space="preserve"
       id="flowRoot3360"
       style="font-style:normal;font-weight:normal;font-size:40px;line-height:125%;font-family:sans-serif;letter-spacing:0px;word-spacing:0px;fill:#000000;fill-opacity:1;stroke:none;stroke-width:1px;stroke-linecap:butt;stroke-linejoin:miter;stroke-opacity:1"><flowRegion
         id="flowRegion3362"><rect
           id="rect3364"
           width="65.714287"
           height="77.14286"
           x="15.714286"
           y="502.36221" /></flowRegion><flowPara
         id="flowPara3366" /></flowRoot>    <path
       style="fill:none;fill-opacity:1;stroke:#ff3300;stroke-width:2.0999999;stroke-miterlimit:3.79999995;stroke-dasharray:none;stroke-opacity:1"
       id="path4168"
       sodipodi:type="arc"
       sodipodi:cx="43.057755"
       sodipodi:cy="535.03784"
       sodipodi:rx="30.304577"
       sodipodi:ry="30.304577"
       sodipodi:start="0.67195176"
       sodipodi:end="5.6234508"
       d="m 66.774364,553.90288 a 30.304577,30.304577 0 0 1 -33.795083,9.71453 30.304577,30.304577 0 0 1 -20.225538,-28.76469 30.304577,30.304577 0 0 1 20.575445,-28.51544 30.304577,30.304577 0 0 1 33.673879,10.12667"
       sodipodi:open="true" />
    <g
       transform="scale(1.0198669,0.9805201)"
       style="font-style:normal;font-variant:normal;font-weight:normal;font-stretch:normal;font-size:33.80607224px;line-height:125%;font-family:Quicksand;-inkscape-font-specification:Quicksand;letter-spacing:0.16999991px;word-spacing:0px;fill:#302d3a;fill-opacity:1;stroke:none;stroke-width:1px;stroke-linecap:butt;stroke-linejoin:miter;stroke-opacity:1"
       id="text4188">
      <path
         d="m 68.799743,538.4321 q 3.143965,0 4.597626,1.85933 1.487467,1.82553 1.487467,4.86807 l 0,9.93899 q 0,0.43948 -0.304254,0.74373 -0.304255,0.27045 -0.709928,0.27045 -0.439479,0 -0.743734,-0.27045 -0.270448,-0.30425 -0.270448,-0.74373 l 0,-9.83757 q 0,-2.19739 -1.115601,-3.54964 -1.081794,-1.38604 -3.380607,-1.38604 -1.453661,0 -2.772098,0.67612 -1.28463,0.67612 -2.095976,1.82552 -0.811346,1.1156 -0.811346,2.43404 l 0,9.83757 q 0,0.43948 -0.304255,0.74373 -0.270448,0.27045 -0.709927,0.27045 -0.439479,0 -0.743734,-0.27045 -0.270448,-0.30425 -0.270448,-0.74373 l 0,-15.14512 q 0,-0.43948 0.270448,-0.70993 0.304255,-0.30425 0.743734,-0.30425 0.439479,0 0.709927,0.30425 0.304255,0.27045 0.304255,0.70993 l 0,1.85933 q 0.912764,-1.45366 2.603068,-2.40023 1.724109,-0.98037 3.515831,-0.98037 z"
         style="font-style:normal;font-variant:normal;font-weight:normal;font-stretch:normal;font-family:Quicksand;-inkscape-font-specification:Quicksand;letter-spacing:0.16999991px"
         id="path4159" />
      <path
         d="m 82.327368,555.09849 q 0,0.43948 -0.304255,0.74373 -0.270448,0.27045 -0.709927,0.27045 -0.439479,0 -0.743734,-0.27045 -0.270448,-0.30425 -0.270448,-0.74373 l 0,-15.55079 q 0,-0.43948 0.270448,-0.70993 0.304255,-0.30426 0.743734,-0.30426 0.439479,0 0.709927,0.30426 0.304255,0.27045 0.304255,0.70993 l 0,15.55079 z m -1.014182,-18.82998 q -0.676122,0 -1.047988,-0.30426 -0.371867,-0.33806 -0.371867,-0.94657 l 0,-0.33806 q 0,-0.60851 0.371867,-0.91276 0.405673,-0.33806 1.081794,-0.33806 1.352243,0 1.352243,1.25082 l 0,0.33806 q 0,0.60851 -0.371867,0.94657 -0.338061,0.30426 -1.014182,0.30426 z"
         style="font-style:normal;font-variant:normal;font-weight:normal;font-stretch:normal;font-family:Quicksand;-inkscape-font-specification:Quicksand;letter-spacing:0.16999991px"
         id="path4161" />
      <path
         d="m 95.270781,538.4321 q 1.588886,0 2.941129,0.37186 1.386049,0.33806 2.19739,0.94657 0.84516,0.60851 0.84516,1.31844 0,0.37187 -0.27045,0.67612 -0.23664,0.30425 -0.60851,0.30425 -0.33806,0 -0.574705,-0.13522 -0.202836,-0.13522 -0.473285,-0.40567 -0.439479,-0.43948 -0.845152,-0.64232 -0.507091,-0.23664 -1.352243,-0.37186 -0.811345,-0.16903 -1.757915,-0.16903 -1.859334,0 -3.414414,0.94657 -1.521273,0.94657 -2.400231,2.56926 -0.878958,1.62269 -0.878958,3.58344 0,2.02836 0.845152,3.65106 0.845152,1.62269 2.332619,2.56926 1.521273,0.91276 3.448219,0.91276 1.217019,0 1.926947,-0.20283 0.743733,-0.20284 1.453661,-0.57471 0.236642,-0.13522 0.811345,-0.60851 0.270449,-0.23664 0.473285,-0.33806 0.202835,-0.13522 0.439475,-0.13522 0.40568,0 0.64232,0.27045 0.23664,0.23664 0.23664,0.64231 0,0.5747 -0.81134,1.25083 -0.811349,0.64231 -2.231204,1.1156 -1.419855,0.47328 -3.143965,0.47328 -2.467843,0 -4.394789,-1.1494 -1.926947,-1.18322 -3.008741,-3.24539 -1.047988,-2.06217 -1.047988,-4.63143 0,-2.46784 1.081794,-4.49621 1.081795,-2.06217 3.042547,-3.27919 1.960752,-1.21701 4.496207,-1.21701 z"
         style="font-style:normal;font-variant:normal;font-weight:normal;font-stretch:normal;font-family:Quicksand;-inkscape-font-specification:Quicksand;letter-spacing:0.16999991px"
         id="path4163" />
      <path
         d="m 121.29133,547.45832 q 0,2.53545 -1.1156,4.59762 -1.1156,2.06217 -3.07635,3.24539 -1.96075,1.1494 -4.36098,1.1494 -2.40023,0 -4.36099,-1.1494 -1.96075,-1.18322 -3.07635,-3.24539 -1.1156,-2.06217 -1.1156,-4.59762 0,-2.53546 1.1156,-4.59763 1.1156,-2.06217 3.07635,-3.24538 1.96076,-1.18321 4.36099,-1.18321 2.40023,0 4.36098,1.18321 1.96075,1.18321 3.07635,3.24538 1.1156,2.06217 1.1156,4.59763 z m -2.02836,0 q 0,-2.02837 -0.84515,-3.65106 -0.84515,-1.62269 -2.36643,-2.53545 -1.48746,-0.94657 -3.31299,-0.94657 -1.82553,0 -3.313,0.94657 -1.48746,0.91276 -2.36642,2.53545 -0.84515,1.62269 -0.84515,3.65106 0,1.99455 0.84515,3.61725 0.87896,1.62269 2.36642,2.56926 1.48747,0.91276 3.313,0.91276 1.82553,0 3.31299,-0.91276 1.52128,-0.91277 2.36643,-2.53546 0.84515,-1.62269 0.84515,-3.65105 z"
         style="font-style:normal;font-variant:normal;font-weight:normal;font-stretch:normal;font-family:Quicksand;-inkscape-font-specification:Quicksand;letter-spacing:0.16999991px"
         id="path4165" />
      <path
         d="m 133.7229,538.4321 q 0.67612,0 1.21702,0.27044 0.5409,0.27045 0.5409,0.81135 0,0.47328 -0.27045,0.77754 -0.27045,0.27045 -0.64232,0.27045 -0.16903,0 -0.67612,-0.16903 -0.47329,-0.16903 -0.91276,-0.16903 -1.25083,0 -2.50165,0.98037 -1.21702,0.94657 -2.02837,2.46785 -0.77754,1.52127 -0.77754,3.07635 l 0,8.3501 q 0,0.43948 -0.30425,0.74373 -0.27045,0.27045 -0.70993,0.27045 -0.43948,0 -0.74373,-0.27045 -0.27045,-0.30425 -0.27045,-0.74373 l 0,-15.14512 q 0,-0.43948 0.27045,-0.70993 0.30425,-0.30425 0.74373,-0.30425 0.43948,0 0.70993,0.30425 0.30425,0.27045 0.30425,0.70993 l 0,2.97493 q 0.77754,-1.92694 2.33262,-3.17777 1.58889,-1.28463 3.71867,-1.31843 z"
         style="font-style:normal;font-variant:normal;font-weight:normal;font-stretch:normal;font-family:Quicksand;-inkscape-font-specification:Quicksand;letter-spacing:0.16999991px"
         id="path4167" />
      <path
         d="m 146.96793,538.4321 q 3.14396,0 4.59762,1.85933 1.48747,1.82553 1.48747,4.86807 l 0,9.93899 q 0,0.43948 -0.30426,0.74373 -0.30425,0.27045 -0.70992,0.27045 -0.43948,0 -0.74374,-0.27045 -0.27045,-0.30425 -0.27045,-0.74373 l 0,-9.83757 q 0,-2.19739 -1.1156,-3.54964 -1.08179,-1.38604 -3.3806,-1.38604 -1.45366,0 -2.7721,0.67612 -1.28463,0.67612 -2.09598,1.82552 -0.81134,1.1156 -0.81134,2.43404 l 0,9.83757 q 0,0.43948 -0.30426,0.74373 -0.27045,0.27045 -0.70993,0.27045 -0.43947,0 -0.74373,-0.27045 -0.27045,-0.30425 -0.27045,-0.74373 l 0,-15.14512 q 0,-0.43948 0.27045,-0.70993 0.30426,-0.30425 0.74373,-0.30425 0.43948,0 0.70993,0.30425 0.30426,0.27045 0.30426,0.70993 l 0,1.85933 q 0.91276,-1.45366 2.60306,-2.40023 1.72411,-0.98037 3.51584,-0.98037 z"
         style="font-style:normal;font-variant:normal;font-weight:normal;font-stretch:normal;font-family:Quicksand;-inkscape-font-specification:Quicksand;letter-spacing:0.16999991px"
         id="path4169" />
    </g>
  </g>
</svg>
