<?xml version="1.0" standalone="no"?>
<!DOCTYPE svg PUBLIC "-//W3C//DTD SVG 20010904//EN"
 "http://www.w3.org/TR/2001/REC-SVG-20010904/DTD/svg10.dtd">
<svg version="1.0" xmlns="http://www.w3.org/2000/svg"
 width="496.000000pt" height="496.000000pt" viewBox="0 0 496.000000 496.000000"
 preserveAspectRatio="xMidYMid meet">
<metadata>
Created by potrace 1.11, written by Peter Selinger 2001-2013
</metadata>
<g transform="translate(0.000000,496.000000) scale(0.100000,-0.100000)"
fill="#000000" stroke="none">
<path d="M2479 4865 c-2 -2 -33 -6 -69 -9 -70 -5 -254 -33 -282 -42 -10 -3
-30 -7 -45 -10 -98 -18 -316 -86 -420 -130 -17 -8 -34 -14 -38 -14 -17 0 -269
-128 -360 -183 -405 -244 -744 -607 -977 -1047 -144 -273 -245 -608 -276 -920
-13 -126 -4 -513 12 -561 3 -8 8 -32 11 -54 24 -168 128 -461 212 -597 13 -21
23 -40 23 -43 0 -3 27 -46 60 -95 314 -467 844 -835 1409 -980 87 -22 256 -57
281 -58 15 -1 55 -5 190 -22 70 -9 495 -5 570 4 25 3 65 9 90 12 89 11 117 15
220 35 139 25 306 69 463 121 115 38 126 44 121 63 -11 36 -135 330 -142 337
-4 4 -45 -4 -92 -17 -47 -13 -96 -26 -110 -29 -14 -2 -54 -11 -90 -20 -36 -8
-76 -17 -90 -20 -14 -2 -45 -9 -70 -14 -25 -6 -65 -13 -90 -17 -25 -3 -58 -8
-73 -11 -34 -7 -60 -10 -147 -20 -36 -3 -78 -8 -95 -10 -43 -5 -353 -4 -400 1
-163 17 -195 22 -355 57 -52 11 -99 24 -105 28 -5 5 -13 9 -18 9 -20 1 -111
32 -192 66 -446 184 -850 580 -1019 998 -91 226 -121 391 -121 677 0 175 9
281 36 400 5 25 11 54 14 65 38 190 164 471 300 669 112 164 299 366 460 498
272 223 638 394 950 442 369 57 733 27 1055 -85 314 -110 626 -325 840 -578
25 -30 50 -59 57 -66 30 -32 140 -209 174 -283 62 -133 112 -302 126 -427 10
-89 10 -311 1 -390 -59 -471 -401 -943 -748 -1029 -141 -34 -260 -17 -338 50
-100 85 -105 172 -22 424 45 138 76 234 170 530 40 124 85 263 100 310 15 47
60 186 100 310 40 124 83 259 96 300 13 41 24 76 24 77 0 2 -101 3 -224 3
l-223 0 -17 -57 c-26 -88 -94 -327 -121 -428 -79 -290 -101 -365 -147 -510
-167 -529 -366 -840 -625 -978 -29 -15 -56 -28 -60 -29 -5 0 -12 -2 -18 -3
-141 -40 -249 -31 -373 32 -146 73 -252 208 -297 378 -21 76 -28 259 -14 350
6 39 12 86 15 105 2 19 20 103 40 185 19 83 37 157 39 166 14 65 80 258 152
442 46 121 95 248 108 283 l24 64 -232 0 -233 0 -38 -87 c-334 -758 -419
-1301 -272 -1736 61 -181 136 -287 278 -395 137 -104 292 -153 493 -156 252
-4 509 112 718 326 35 36 59 54 61 46 3 -7 10 -31 17 -53 30 -102 93 -189 176
-246 51 -35 160 -78 217 -85 23 -3 52 -8 66 -10 45 -8 225 -5 298 6 404 57
712 272 988 687 154 232 238 450 290 753 10 62 13 353 3 420 -19 134 -19 138
-44 245 -92 396 -346 771 -720 1064 -195 153 -320 227 -590 347 -121 54 -385
123 -569 149 -23 3 -57 8 -76 11 -41 6 -466 14 -471 9z"/>
</g>
</svg>
