<?xml version="1.0" standalone="no"?>
<!DOCTYPE svg PUBLIC "-//W3C//DTD SVG 20010904//EN"
 "http://www.w3.org/TR/2001/REC-SVG-20010904/DTD/svg10.dtd">
<svg version="1.0" xmlns="http://www.w3.org/2000/svg"
 width="700.000000pt" height="700.000000pt" viewBox="0 0 700.000000 700.000000"
 preserveAspectRatio="xMidYMid meet">
<metadata>
Created by potrace 1.11, written by Peter Selinger 2001-2013
</metadata>
<g transform="translate(0.000000,700.000000) scale(0.100000,-0.100000)"
fill="#000000" stroke="none">
<path d="M3577 6754 c-1 -1 -44 -4 -96 -8 -51 -3 -96 -8 -100 -10 -3 -2 -27
-7 -53 -10 -209 -28 -663 -187 -903 -316 -49 -27 -101 -55 -115 -62 -14 -7
-72 -44 -130 -82 -579 -378 -1017 -948 -1255 -1636 -20 -58 -38 -114 -40 -124
-3 -11 -16 -58 -30 -105 -13 -47 -32 -120 -41 -161 -8 -41 -17 -84 -20 -95
-15 -70 -36 -202 -42 -275 -14 -171 -6 -698 12 -751 3 -8 7 -38 10 -66 12
-110 66 -342 115 -489 166 -501 478 -915 903 -1198 312 -207 710 -357 1093
-411 22 -3 54 -8 70 -10 151 -25 513 -35 750 -21 218 13 558 63 725 106 19 5
46 11 60 14 126 24 469 136 648 213 167 71 522 251 522 265 0 8 -178 370 -186
377 -2 2 -9 -1 -16 -7 -18 -15 -327 -168 -385 -191 -27 -10 -73 -30 -103 -44
-51 -23 -152 -60 -290 -106 -100 -34 -313 -89 -450 -117 -139 -28 -151 -30
-210 -38 -19 -3 -52 -8 -73 -12 -212 -35 -796 -41 -917 -9 -8 2 -37 6 -65 10
-324 39 -744 216 -1005 424 -233 185 -425 442 -553 742 -53 124 -113 320 -132
429 -3 19 -10 51 -15 70 -8 34 -26 176 -35 290 -7 72 -7 372 -1 430 3 25 8 72
11 105 8 74 49 292 77 400 105 417 297 809 552 1125 315 391 727 669 1223 824
106 33 214 63 258 72 11 2 31 6 45 9 97 20 480 28 625 12 357 -38 765 -181
1041 -363 305 -201 515 -453 673 -806 23 -52 98 -279 105 -318 2 -14 11 -54
19 -90 8 -36 18 -90 22 -120 3 -30 9 -68 11 -85 13 -71 20 -461 10 -510 -2
-11 -7 -60 -11 -110 -3 -49 -8 -92 -10 -95 -1 -3 -6 -32 -10 -65 -3 -32 -8
-62 -10 -65 -4 -7 -11 -39 -21 -99 -12 -71 -76 -288 -110 -375 -41 -103 -130
-277 -177 -345 -177 -261 -399 -402 -632 -402 -120 0 -193 36 -238 119 -25 45
-47 139 -41 176 1 9 5 49 9 89 4 39 8 74 10 77 1 3 6 32 9 65 4 33 9 67 11 75
2 8 6 38 10 65 8 71 45 345 50 375 3 14 7 50 10 80 4 30 8 62 10 70 2 8 7 42
11 75 3 33 8 69 10 79 3 17 15 105 29 211 2 17 9 66 16 110 6 44 13 94 15 110
1 17 10 82 19 145 9 63 18 131 21 150 2 19 11 80 18 135 8 55 17 123 21 150 3
28 15 111 25 185 11 74 22 152 25 174 5 41 14 106 20 146 2 14 7 52 11 85 3
33 8 68 10 78 3 15 -4 17 -54 13 -59 -5 -166 -11 -357 -22 -60 -3 -111 -6
-112 -7 -1 -1 -4 -22 -8 -47 -3 -25 -8 -56 -10 -70 -2 -14 -7 -45 -10 -70 -3
-25 -10 -72 -15 -105 -5 -33 -11 -78 -14 -100 -3 -22 -28 -197 -55 -390 -28
-192 -53 -372 -57 -400 -3 -27 -8 -59 -10 -69 -2 -11 -8 -56 -14 -100 -6 -45
-13 -92 -15 -106 -2 -14 -9 -61 -15 -105 -6 -44 -12 -91 -14 -105 -3 -14 -7
-43 -10 -65 -75 -585 -454 -1013 -966 -1089 -128 -19 -299 -12 -390 16 -109
34 -216 121 -264 215 -68 136 -69 364 -2 780 6 37 17 121 21 153 3 35 17 131
21 155 2 10 6 35 8 55 3 19 8 54 11 76 3 23 8 59 10 80 3 22 10 73 16 114 6
41 12 84 14 95 1 11 8 58 14 105 7 47 14 100 17 118 2 17 6 49 9 70 3 20 8 55
11 77 2 22 7 51 9 65 4 25 31 225 40 290 2 20 11 81 20 138 17 115 18 135 8
129 -7 -5 -62 -8 -333 -23 -136 -7 -180 -11 -185 -16 -2 -2 -7 -24 -10 -48 -3
-25 -7 -56 -10 -70 -2 -14 -7 -45 -10 -70 -4 -25 -8 -56 -10 -70 -3 -22 -12
-91 -21 -160 -5 -47 -16 -125 -19 -141 -2 -9 -6 -40 -10 -70 -3 -30 -10 -81
-15 -114 -5 -33 -12 -80 -15 -105 -3 -25 -10 -78 -16 -119 -6 -41 -13 -87 -15
-103 -4 -38 -12 -98 -20 -150 -4 -24 -7 -54 -9 -68 -3 -33 -16 -130 -21 -155
-4 -22 -9 -56 -24 -175 -13 -97 -19 -144 -26 -180 -2 -14 -6 -49 -10 -78 -3
-29 -7 -61 -9 -71 -25 -133 -26 -465 -1 -576 41 -182 105 -307 212 -412 76
-76 149 -123 246 -161 176 -70 356 -83 623 -47 113 15 275 66 410 129 177 83
390 249 505 396 19 24 45 55 56 67 l22 23 6 -42 c7 -50 19 -186 18 -208 -1
-37 33 -170 57 -220 55 -116 217 -236 361 -268 278 -62 571 -27 814 95 163 82
366 247 467 380 24 32 47 60 50 63 18 14 123 188 168 278 221 442 322 989 288
1566 -8 130 -19 218 -43 341 -8 44 -18 91 -20 105 -27 144 -114 391 -192 547
-276 553 -730 929 -1384 1146 -168 56 -205 66 -348 96 -186 38 -347 53 -608
55 -101 1 -184 1 -185 0z"/>
</g>
</svg>
