<svg width="116px" height="100px" viewBox="0 0 116 100" version="1.1" xmlns="http://www.w3.org/2000/svg" xmlns:xlink="http://www.w3.org/1999/xlink">
    <!-- Generator: sketchtool 3.8.3 (29802) - http://www.bohemiancoding.com/sketch -->
    <title>7F3845C1-0918-45B0-BF3F-AF45967F9816</title>
    <desc>Created with sketchtool.</desc>
    <defs></defs>
    <g id="Symbols" stroke="none" stroke-width="1" fill-rule="evenodd">
        <g id="home-icon-01">
            <path d="M6.74418605,0 C3.02858915,0 0,3.03419784 0,6.7566757 L0,74.3234328 C0,78.0459106 3.02858915,81.0801085 6.74418605,81.0801085 L47.2093023,81.0801085 L47.2093023,97.2961301 L40.4651163,97.2961301 C39.7619225,97.2961301 39.1162791,97.9357621 39.1162791,98.6474653 C39.1162791,99.3591685 39.7547287,99.9988004 40.4651163,99.9988004 L75.4935194,99.9988004 C76.2722481,100.034836 76.9826357,99.2528634 76.8837209,98.4780979 C76.7991938,97.8168446 76.1607442,97.2673017 75.4935194,97.2961301 L68.7906977,97.2961301 L68.7906977,81.0801085 L109.255814,81.0801085 C112.971411,81.0801085 116,78.0459106 116,74.3234328 L116,6.7566757 C116,3.03419784 112.971411,0 109.255814,0 L6.74418605,0 Z M6.74418605,2.70267028 L109.255814,2.70267028 C111.518264,2.70267028 113.302326,4.49003623 113.302326,6.7566757 L113.302326,74.3234328 C113.302326,76.5900722 111.518264,78.3774382 109.255814,78.3774382 L6.74418605,78.3774382 C4.48173643,78.3774382 2.69767442,76.5900722 2.69767442,74.3234328 L2.69767442,6.7566757 C2.69767442,4.49003623 4.48173643,2.70267028 6.74418605,2.70267028 L6.74418605,2.70267028 Z M65.923969,18.877251 C65.4329922,18.9403133 64.9977674,19.2988676 64.8287132,19.7637269 L48.6426667,60.3037811 C48.3890853,60.9650344 48.7613643,61.8028622 49.4213953,62.0551115 C50.0832248,62.3091625 50.9177054,61.936194 51.1712868,61.2749406 L67.3573333,20.7348864 C67.7224186,19.861023 66.8591628,18.7421175 65.923969,18.877251 L65.923969,18.877251 Z M39.0749147,25.6339267 C38.8501085,25.6465392 38.6306977,25.7240157 38.4418605,25.844735 L14.1627907,39.3580864 C13.3265116,39.8229457 13.3265116,41.2571627 14.1627907,41.722022 L38.4418605,55.2353734 C39.0605271,55.5885224 39.9453643,55.3488856 40.296062,54.7290732 C40.6485581,54.1092608 40.4093643,53.222785 39.7906977,52.8714378 L17.6194109,40.5400542 L39.7906977,28.2086706 C40.3733953,27.9492143 40.7186977,27.230304 40.5424496,26.6122934 C40.3733953,25.992481 39.7061705,25.5564502 39.0749147,25.6339267 L39.0749147,25.6339267 Z M76.7578295,25.6339267 C76.1535504,25.6393321 75.5834419,26.1113985 75.4575504,26.7023824 C75.3316589,27.2933663 75.6607752,27.9564214 76.2093023,28.2086706 L98.3805891,40.5400542 L76.2093023,52.8714378 C75.5906357,53.222785 75.3514419,54.1092608 75.703938,54.7290732 C76.0546357,55.3488856 76.9394729,55.5885224 77.5581395,55.2353734 L101.837209,41.722022 C102.673488,41.2571627 102.673488,39.8229457 101.837209,39.3580864 L77.5581395,25.844735 C77.3189457,25.6897819 77.0383876,25.6195125 76.7578295,25.6339267 L76.7578295,25.6339267 Z M49.9069767,81.0801085 L66.0930233,81.0801085 L66.0930233,97.2961301 L49.9069767,97.2961301 L49.9069767,81.0801085 Z"></path>
        </g>
    </g>
</svg>
