<svg width="105px" height="105px" viewBox="0 0 105 105" version="1.1" xmlns="http://www.w3.org/2000/svg" xmlns:xlink="http://www.w3.org/1999/xlink">
    <!-- Generator: sketchtool 3.8.3 (29802) - http://www.bohemiancoding.com/sketch -->
    <g id="Symbols" stroke="none" stroke-width="1" fill-rule="evenodd">
        <g id="home-icon-02">
            <g>
                <path d="M20.2460656,92.8096721 L22.3305738,91.2570492 C30.9836066,98.1904918 41.4181967,101.853443 52.5068852,101.853443 C63.5938525,101.853443 74.0370492,98.1904918 82.6831967,91.2501639 L84.7677049,92.8027869 C75.5087705,100.219918 64.3615574,104.139344 52.5,104.139344 C40.6453279,104.139344 29.4912295,100.219918 20.2460656,92.8096721 Z" id="Fill-1"></path>
                <path d="M20.2460656,92.8096721 C7.92663934,82.9465574 0.860655738,68.2465574 0.860655738,52.5 C0.860655738,24.0243443 24.0243443,0.860655738 52.5,0.860655738 C80.9756557,0.860655738 104.139344,24.0243443 104.139344,52.5 C104.139344,68.2465574 97.0785246,82.9396721 84.7608197,92.8096721 L82.6763115,91.2570492 C94.2022131,82.0256557 101.853443,67.2327049 101.853443,52.5 C101.853443,25.8592623 79.1338525,3.14655738 52.5,3.14655738 C25.8592623,3.14655738 3.14655738,25.8592623 3.14655738,52.5 C3.14655738,67.2327049 10.8046721,82.0256557 22.3305738,91.2639344 L20.2460656,92.8096721 Z" id="Fill-2"></path>
                <path d="M19.3372131,63.2788525 C12.6671311,63.2788525 7.24155738,57.8515574 7.24155738,51.1814754 C7.24155738,44.5113934 12.6671311,39.0858197 19.3372131,39.0858197 C26.0072951,39.0858197 31.4345902,44.5113934 31.4345902,51.1814754 C31.4345902,57.8515574 26.0072951,63.2788525 19.3372131,63.2788525 L19.3372131,63.2788525 Z M19.3371527,41.8003279 C14.1720393,41.8003279 9.96295082,46.0094164 9.96295082,51.1745298 C9.96295082,56.3488535 14.1720393,60.5505738 19.3371527,60.5505738 C24.5114764,60.5505738 28.7131967,56.3414853 28.7131967,51.1745298 C28.7131967,46.0094164 24.5114764,41.8003279 19.3371527,41.8003279 L19.3371527,41.8003279 Z" id="Fill-3"></path>
                <path d="M32.4708197,72.0919672 C29.2089344,68.9522951 23.8694262,67.2240984 19.3372131,67.2240984 C15.0218852,67.2240984 9.82868852,68.8180328 6.62188525,71.7029508 L5.43934426,70.2777049 C9.25893443,66.835082 14.1870492,64.939918 19.3303279,64.939918 C24.730082,64.939918 29.8406557,66.9968852 33.727377,70.7355738 L32.4708197,72.0919672 Z" id="Fill-4"></path>
                <path d="M85.6627869,63.2788525 C78.9927049,63.2788525 73.5654098,57.8515574 73.5654098,51.1814754 C73.5654098,44.5113934 78.9927049,39.0858197 85.6627869,39.0858197 C92.3328689,39.0858197 97.7584426,44.5113934 97.7584426,51.1814754 C97.7584426,57.8515574 92.3328689,63.2788525 85.6627869,63.2788525 L85.6627869,63.2788525 Z M85.6628473,41.8003279 C80.4885236,41.8003279 76.2868033,46.0094164 76.2868033,51.1745298 C76.2868033,56.3488535 80.4958918,60.5505738 85.6628473,60.5505738 C90.8279607,60.5505738 95.0370492,56.3414853 95.0370492,51.1745298 C95.0370492,46.0094164 90.8353289,41.8003279 85.6628473,41.8003279 L85.6628473,41.8003279 Z" id="Fill-5"></path>
                <path d="M71.4068852,70.6081967 C75.2798361,66.9504098 80.3370492,64.939918 85.6627869,64.939918 C90.8060656,64.939918 95.7410656,66.835082 99.5537705,70.2708197 L98.3712295,71.6960656 C95.1713115,68.8042623 89.9781148,67.2172131 85.6627869,67.2172131 C81.1977049,67.2240984 75.8977869,68.9127049 72.6427869,71.9783607 L71.4068852,70.6081967 Z" id="Fill-6"></path>
                <path d="M52.5068852,63.2977869 C41.950082,63.2977869 33.3572951,54.705 33.3572951,44.1481967 C33.3572951,33.5862295 41.9431967,24.9986066 52.5068852,24.9986066 C63.0636885,24.9986066 71.6564754,33.5862295 71.6564754,44.1481967 C71.6564754,54.705 63.0636885,63.2977869 52.5068852,63.2977869 L52.5068852,63.2977869 Z M52.5069189,27.7165574 C43.4460902,27.7165574 36.0736591,35.0871999 36.0736591,44.1480286 C36.0736591,53.2106459 43.4460902,60.5884426 52.5069189,60.5884426 C61.5677476,60.5884426 68.9383901,53.2178001 68.9383901,44.1480286 C68.9383901,35.0871999 61.5677476,27.7165574 52.5069189,27.7165574 L52.5069189,27.7165574 Z" id="Fill-7"></path>
                <path d="M19.6608197,91.1348361 C23.1912295,75.7239344 36.6914754,64.9657377 52.5,64.9657377 C68.3085246,64.9657377 81.8087705,75.7239344 85.3391803,91.1348361 L83.1410656,91.8818852 C79.9618033,77.9960656 66.7404098,67.2516393 52.5,67.2516393 C38.2595902,67.2516393 25.0381967,77.9960656 21.8589344,91.8818852 L19.6608197,91.1348361 Z" id="Fill-8"></path>
            </g>
        </g>
    </g>
</svg>
