<svg width="100px" height="100px" viewBox="0 0 100 100" version="1.1" xmlns="http://www.w3.org/2000/svg" xmlns:xlink="http://www.w3.org/1999/xlink">
    <g id="Symbols" stroke="none" stroke-width="1" fill-rule="evenodd">
        <g id="home-icon-03">
            <g>
                <path d="M74.9581818,24.9072727 C72.3654545,22.3145455 68.8218182,20.8163636 65.1418182,20.8163636 C61.4636364,20.8163636 57.9127273,22.3145455 55.3272727,24.9072727 C52.7345455,27.5 51.2363636,31.0436364 51.2363636,34.7236364 C51.2363636,38.4018182 52.7345455,41.9527273 55.3272727,44.5381818 C57.9181818,47.1309091 61.4636364,48.6290909 65.1418182,48.6290909 C68.8218182,48.6290909 72.3727273,47.1309091 74.9581818,44.5381818 C77.5490909,41.9454545 79.0490909,38.4018182 79.0490909,34.7236364 C79.0490909,31.0436364 77.5418182,27.5 74.9581818,24.9072727 L74.9581818,24.9072727 Z M73.1818182,42.6345455 C71.0018182,44.8145455 68.2745455,45.9090909 65.2690909,45.9090909 C62.2727273,45.9090909 59.4036364,44.68 57.3581818,42.6345455 C55.1781818,40.4545455 54.0836364,37.7272727 54.0836364,34.7236364 C54.0836364,31.7254545 55.3127273,28.8563636 57.3581818,26.8109091 C59.5381818,24.6309091 62.2654545,23.5363636 65.2690909,23.5363636 C68.2672727,23.5363636 71.1363636,24.7654545 73.1818182,26.8109091 C75.3618182,28.9909091 76.4563636,31.7181818 76.4563636,34.7236364 C76.4563636,37.7272727 75.2272727,40.5890909 73.1818182,42.6345455 L73.1818182,42.6345455 Z" id="Fill-1"></path>
                <path d="M98.5436364,2.40727273 C98.4090909,1.86 97.9963636,1.45636364 97.4509091,1.31454545 C94.0418182,0.632727273 90.4963636,0.361818182 86.9527273,0.361818182 C79.0418182,0.361818182 71.1363636,1.86 63.6363636,4.86545455 L63.6363636,4.86545455 C54.7727273,8.27454545 46.4563636,13.7290909 39.5036364,20.6818182 C35.9581818,24.2254545 32.9545455,28.0472727 30.2272727,32.0036364 C22.0454545,30.9090909 14.1327273,33.6363636 8.27454545,39.5036364 C0.503636364,47.2727273 -1.68363636,59.2763636 2.95454545,69.2327273 C3.08909091,69.6454545 3.50181818,69.9145455 4.04909091,70.0490909 L4.18363636,70.0490909 C4.59454545,70.0490909 5,69.78 5.27636364,69.5036364 C6.09454545,68.2745455 7.05272727,67.0454545 8.14,65.9581818 C11.5490909,62.5490909 15.9090909,60.2345455 20.5472727,59.4109091 L20.6818182,59.4109091 L23.6781818,62.4072727 C16.9963636,70.1781818 11.6763636,80 15.6327273,83.8145455 C16.5836364,84.7654545 17.8127273,85.1781818 19.3109091,85.1781818 C24.0836364,85.1781818 31.1727273,80.9509091 37.1727273,75.7672727 L40.7181818,79.3109091 L40.7181818,79.4454545 C39.9,84.2181818 37.5781818,88.4454545 34.1690909,91.8545455 C33.0745455,92.9472727 31.8545455,93.9 30.6254545,94.7163636 C30.2127273,94.9854545 30.0781818,95.3981818 30.0781818,95.9454545 C30.0781818,96.3563636 30.3472727,96.7618182 30.8945455,97.0381818 C34.4381818,98.6727273 38.26,99.4963636 41.9381818,99.4963636 C48.8927273,99.4963636 55.5745455,96.7690909 60.6181818,91.7254545 C66.62,85.7236364 69.3472727,77.6781818 68.1181818,69.36 C72.0745455,66.7690909 75.7527273,63.7709091 79.2963636,60.2272727 C86.2509091,53.2745455 91.4345455,45.2272727 94.8436364,36.6327273 L94.8436364,36.6327273 C95.1127273,36.3636364 95.2563636,35.9509091 95.2563636,35.54 C99.2254545,25.0418182 100.454545,13.5945455 98.5436364,2.40727273 L98.5436364,2.40727273 Z M96.0945455,3.77090909 C97.7272727,13.7290909 96.64,23.8145455 93.2309091,33.36 L66.4981818,6.63272727 C73.0472727,4.31818182 80,3.08909091 86.9527273,3.08909091 C89.9581818,3.08909091 93.0890909,3.36727273 96.0945455,3.77090909 L96.0945455,3.77090909 Z M6.22909091,64.1836364 C5.54727273,64.8654545 5,65.5472727 4.45272727,66.2290909 C1.45636364,57.6345455 3.63636364,47.9545455 10.0418182,41.4127273 C15.0854545,36.3709091 21.7690909,33.9127273 28.5872727,34.46 C26.1290909,38.5509091 24.0836364,42.7763636 22.5854545,47.28 C22.4509091,47.4145455 22.4509091,47.6909091 22.3145455,47.9618182 C21.3636364,50.9581818 20.54,53.9636364 20,56.96 L19.8654545,56.96 C14.8145455,57.9127273 10.0418182,60.3618182 6.22909091,64.1836364 L6.22909091,64.1836364 Z M24.5036364,50.5472727 L49.46,75.5036364 C47.1454545,76.1854545 44.6872727,76.7327273 42.2309091,77.28 L38.14,73.1818182 L38.14,73.1818182 C38.14,73.1818182 38.14,73.1818182 38.0036364,73.0472727 L26.4127273,61.4563636 C26.4127273,61.4563636 26.4127273,61.4563636 26.2781818,61.3218182 L26.2781818,61.3218182 L22.7272727,57.7690909 C23.14,55.32 23.8218182,52.8618182 24.5036364,50.5472727 L24.5036364,50.5472727 Z M17.5418182,82.0454545 C15.6327273,80.1345455 18.36,72.6345455 25.5890909,64.3181818 L35.2690909,73.9981818 C26.9527273,81.0945455 19.4527273,83.9563636 17.5418182,82.0454545 L17.5418182,82.0454545 Z M58.7290909,89.9581818 C52.18,96.5054545 42.5,98.5509091 33.9127273,95.5472727 C34.5945455,95 35.2763636,94.4527273 35.9581818,93.7709091 C39.78,89.9509091 42.2309091,85.1781818 43.1890909,80 L43.1890909,79.5872727 C51.1,78.0890909 58.7363636,75.2272727 65.6890909,70.9945455 C66.2290909,78.0890909 63.7709091,84.9072727 58.7290909,89.9581818 L58.7290909,89.9581818 Z M77.2727273,58.5945455 C69.9072727,65.9581818 61.4563636,71.2781818 52.0454545,74.5454545 L25.32,47.6854545 C28.5945455,38.4090909 34.0490909,29.8218182 41.2709091,22.4581818 C47.82,15.9090909 55.4545455,10.8672727 63.7709091,7.59272727 L92.2727273,36.0945455 C88.9981818,44.2763636 83.9563636,51.9109091 77.2727273,58.5945455 L77.2727273,58.5945455 Z" id="Fill-2"></path>
            </g>
        </g>
    </g>
</svg>
