<?xml version="1.0" encoding="UTF-8" standalone="no"?>
<svg
   xmlns:dc="http://purl.org/dc/elements/1.1/"
   xmlns:cc="http://creativecommons.org/ns#"
   xmlns:rdf="http://www.w3.org/1999/02/22-rdf-syntax-ns#"
   xmlns:svg="http://www.w3.org/2000/svg"
   xmlns="http://www.w3.org/2000/svg"
   xmlns:sodipodi="http://sodipodi.sourceforge.net/DTD/sodipodi-0.dtd"
   xmlns:inkscape="http://www.inkscape.org/namespaces/inkscape"
   version="1.1"
   width="500"
   height="500"
   id="svg3530"
   inkscape:version="0.91 r13725"
   sodipodi:docname="u_sign_rounder.svg"
   inkscape:export-filename="/home/thomas/unicorn/u_round.png"
   inkscape:export-xdpi="90"
   inkscape:export-ydpi="90">
  <metadata
     id="metadata3540">
    <rdf:RDF>
      <cc:Work
         rdf:about="">
        <dc:format>image/svg+xml</dc:format>
        <dc:type
           rdf:resource="http://purl.org/dc/dcmitype/StillImage" />
        <dc:title></dc:title>
      </cc:Work>
    </rdf:RDF>
  </metadata>
  <defs
     id="defs3538" />
  <sodipodi:namedview
     pagecolor="#ffffff"
     bordercolor="#666666"
     borderopacity="1"
     objecttolerance="10"
     gridtolerance="10"
     guidetolerance="10"
     inkscape:pageopacity="0"
     inkscape:pageshadow="2"
     inkscape:window-width="1232"
     inkscape:window-height="748"
     id="namedview3536"
     showgrid="false"
     inkscape:zoom="0.3337544"
     inkscape:cx="-0.27325132"
     inkscape:cy="147.34105"
     inkscape:window-x="-156"
     inkscape:window-y="216"
     inkscape:window-maximized="0"
     inkscape:current-layer="svg3530" />
  <g
     id="g3532"
     transform="matrix(1.0113823,0,0,1.0113823,-5.5958359,-15.027771)"
     style="fill:#f46524;fill-opacity:1">
    <path
       d="m 218.14995,153.13053 -22.43997,58.49895 c 0,0 -16.03663,50.34855 -16.03643,78.54461 l 0,0.53909 c -2e-4,23.90536 8.38569,41.92412 25.15768,54.05635 l 0.5391,0 c 8.20052,6.06624 17.12006,9.09932 26.75862,9.09925 l 0.5391,0 c 20.69221,7e-5 38.89068,-11.5986 54.59545,-34.79603 11.78351,-17.13107 24.42537,-39.92149 40.30172,-100.13945 0,0 15.00722,-55.05452 18.59014,-65.80327 l 44.41803,0 -48.17534,149.88428 c -4.28043,12.13243 -6.42046,20.87771 -6.42012,26.23588 l 0,0.53909 c -3.4e-4,9.62752 5.17277,16.76097 15.51936,21.40037 l 0.53909,0 c 3.21241,1.42676 6.78458,2.1401 10.71652,2.14003 22.83756,7e-5 43.70971,-12.84558 62.6165,-38.537 18.20893,-25.3318 27.31361,-53.34286 27.31406,-84.03322 l 0,-0.53909 C 452.68301,187.39808 435.37214,150.10267 400.75081,118.334 365.42076,85.509549 322.77798,68.024429 272.82234,65.878594 l -8.57649,0 c -52.46108,3.55e-4 -98.85029,18.19882 -139.16776,54.595456 l -16.59754,16.59753 C 72.072614,177.40037 53.868704,223.26137 53.868767,274.65473 l 0,0.52276 c -6.3e-5,50.32636 18.737494,92.79489 56.212733,127.40572 38.54229,35.68904 86.54332,53.53357 144.00326,53.5336 l 0.52276,0 c 28.19592,-3e-5 62.63795,-5.71225 103.32622,-17.13663 l 14.98025,35.87421 c -39.96948,14.98564 -80.29253,22.47848 -120.96927,22.47855 -64.24487,-7e-5 -119.73876,-19.09158 -166.481817,-57.27458 C 41.921536,404.36931 16.758428,360.2944 9.9735023,307.83347 8.9061878,291.4212 8.3725404,283.21501 8.3725586,283.21488 8.3725404,228.26023 25.324014,177.58551 59.227028,131.19056 c 4.280001,-5.71736 8.739769,-11.24987 13.379316,-16.59754 0.359313,-0.35909 0.718708,-0.71848 1.078187,-1.07818 0.359311,-0.3482 0.713262,-0.70215 1.06185,-1.06185 4.998776,-5.70645 10.351586,-11.23896 16.058446,-16.597541 l 2.140038,-2.140037 C 131.48718,58.745499 177.70213,36.800611 231.58986,27.880682 c 13.21026,-2.145086 26.41531,-3.217827 39.61519,-3.218223 59.24547,3.96e-4 110.81323,18.019164 154.70346,54.056357 41.39535,33.554784 65.30602,74.416934 71.73207,122.586554 1.06679,7.49306 1.60044,14.81166 1.60095,21.9558 l 0,0.53909 c -5.1e-4,43.18207 -14.9862,82.43783 -44.95711,117.76739 -0.35987,0.70798 -0.71926,1.24163 -1.0782,1.60094 -27.11845,31.75755 -60.30806,47.63628 -99.5689,47.63625 -34.25181,3e-5 -53.87696,-13.73867 -58.87552,-41.21613 -23.55702,25.69138 -48.71468,38.53703 -75.47307,38.537 l -0.53909,0 c -29.26371,3e-5 -52.47155,-11.2658 -69.24316,-35.88988 -35.13414,-62.56699 -1.03666,-147.10129 22.73157,-199.1053"
       id="path3534"
       inkscape:connector-curvature="0"
       sodipodi:nodetypes="ccssccsscccccccccccccccsccsscssccscccccccccccccccccscsscc"
       style="fill:#f46524;fill-opacity:1" />
  </g>
</svg>
