<svg
   viewbox="0 0 145 145"
   xmlns:dc="http://purl.org/dc/elements/1.1/"
   xmlns:cc="http://creativecommons.org/ns#"
   xmlns:rdf="http://www.w3.org/1999/02/22-rdf-syntax-ns#"
   xmlns:svg="http://www.w3.org/2000/svg"
   xmlns="http://www.w3.org/2000/svg"
   version="1.1"
   >
  <g
     id="text7126">
    <path
       id="path7675"
       d="m 131.84375,56.75 c 0,6.75 -0.79688,12.9375 -2.39063,18.5625 -1.54687,5.578125 -3.70312,10.382812 -6.46874,14.414062 -2.76563,4.03125 -6.09375,7.171875 -9.98438,9.421875 -3.84375,2.250003 -8.03906,3.375003 -12.58594,3.375003 -2.624999,0 -4.874998,-0.30469 -6.749998,-0.91406 -1.828125,-0.65625 -3.328125,-1.52344 -4.5,-2.601568 -1.171875,-1.125 -2.015625,-2.4375 -2.53125,-3.9375 -1.038729,-3.443756 -0.792716,-6.39048 -0.5625,-9.84375 -3.374899,-3.205135 9.536297,-8.666886 10.546875,-5.554687 -0.421875,2.8125 -0.632812,5.367187 -0.632812,7.664062 0,2.25 0.492187,3.914063 1.476562,4.992188 1.03125,1.078125 2.437501,1.617187 4.218753,1.617187 2.90625,0 5.60156,-0.9375 8.08594,-2.8125 2.53125,-1.921875 4.71093,-4.546875 6.53906,-7.875 1.875,-3.328125 3.32812,-7.242187 4.35937,-11.742187 1.07813,-4.5 1.61719,-9.375 1.61719,-14.625 0,-6.046875 -0.98437,-11.671875 -2.95312,-16.875 C 117.40625,34.8125 114.54687,30.3125 110.75,26.515625 107,22.71875 102.33594,19.742187 96.757812,17.585937 91.179687,15.429688 84.734375,14.351563 77.421875,14.351563 c -6.28125,0 -12.09375,0.75 -17.4375,2.249999 -5.296875,1.5 -10.101563,3.609375 -14.414063,6.328125 -4.3125,2.71875 -8.109375,5.976563 -11.390625,9.773438 -3.234375,3.75 -5.953125,7.875 -8.15625,12.375 -2.203125,4.5 -3.867187,9.328125 -4.992187,14.484375 -1.125,5.109375 -1.6875,10.359375 -1.6875,15.75 0,6.609375 1.007812,12.703125 3.023437,18.28125 2.015625,5.578127 4.945313,10.38281 8.789063,14.41406 3.890625,3.98438 8.671875,7.10157 14.34375,9.35157 5.71875,2.25 12.28125,3.375 19.6875,3.375 4.921875,0 9.515625,-0.39844 13.78125,-1.19532 4.265625,-0.75 8.179687,-1.6875 11.742187,-2.8125 3.5625,-1.125 6.750001,-2.36719 9.562503,-3.72656 2.8125,-1.3125 5.25,-2.53125 7.3125,-3.65625 l 3.86719,7.875 c -2.34375,1.40625 -5.10938,2.83594 -8.29688,4.28906 -3.14063,1.5 -6.65625,2.85938 -10.546875,4.07813 -3.890625,1.21875 -8.132813,2.20312 -12.726563,2.95312 -4.59375,0.79687 -9.492187,1.19531 -14.695312,1.19531 -8.90625,0 -16.828125,-1.35937 -23.765625,-4.07812 -6.890625,-2.67187 -12.726563,-6.42187 -17.507813,-11.25 -4.734375,-4.82813 -8.343749,-10.57031 -10.828124,-17.226563 -2.4375,-6.65625 -3.6562505,-13.945312 -3.6562505,-21.867187 0,-6.515625 0.7265625,-12.773438 2.1796875,-18.773438 1.5,-6 3.632812,-11.578125 6.398437,-16.734375 2.765625,-5.15625 6.140625,-9.84375 10.125,-14.0625 3.984375,-4.21875 8.484375,-7.828125 13.5,-10.828124 5.0625,-3 10.570313,-5.3203127 16.523438,-6.960938 6,-1.640625 12.375,-2.4609375 19.125,-2.4609375 9.421875,0 17.554688,1.3828125 24.39844,4.1484375 6.84375,2.765625 12.49218,6.492188 16.94531,11.179687 4.5,4.6875 7.82812,10.125 9.98437,16.3125 2.15625,6.1875 3.23438,12.726563 3.23438,19.617188 z" />
  </g>
  <g
     id="text7681"
     style="font-style:normal;font-weight:normal;font-size:116.35532379px;line-height:125%;font-family:sans-serif;letter-spacing:0px;word-spacing:0px;fill-opacity:1;stroke:#000000;stroke-width:0;stroke-linecap:butt;stroke-linejoin:miter;stroke-miterlimit:4;stroke-dasharray:none;stroke-opacity:0"
     transform="matrix(1.0460492,0,0,1.0150416,-2.2397592,-1.2162252)">
    <path
       id="path7686"
       style="font-style:italic;font-variant:normal;font-weight:normal;font-stretch:normal;font-family:sans-serif;-inkscape-font-specification:'sans-serif Italic';stroke:#000000;stroke-width:0;stroke-miterlimit:4;stroke-dasharray:none;stroke-opacity:0;fill-opacity:1"
       d="m 42.973638,73.592005 5.151807,-38.780142 10.492112,-0.623347 -5.175392,38.383143 c -0.268026,1.875124 -0.457252,3.479967 -0.567679,4.814528 -0.07262,1.332315 -0.08309,2.43328 -0.03143,3.302896 0.190935,3.213801 1.322236,5.650818 3.393901,7.311053 2.069419,1.622426 4.900076,2.32694 8.49197,2.113542 5.595793,-0.332452 10.323083,-2.510449 14.18187,-6.53399 3.858787,-4.023541 6.222224,-9.267271 7.090311,-15.73119 l 4.886782,-35.577196 10.4354,-0.619977 -8.533189,64.250984 -7.677502,-0.492157 -1.252496,-8.99422 c -2.728997,3.880533 -6.074554,6.962954 -10.036671,9.247262 -3.926553,2.244253 -8.1773,3.50228 -12.752239,3.774082 -5.557984,0.330205 -9.977014,-0.92497 -13.257089,-3.765527 -3.282322,-2.878367 -5.085216,-7.039828 -5.408683,-12.484383 -0.06739,-1.134283 -0.0571,-2.557751 0.03086,-4.270406 0.08796,-1.712655 0.267082,-3.48764 0.537357,-5.324955 z" />
  </g>
</svg>
